<svg width="113" height="23" viewBox="0 0 113 23" fill="none" xmlns="http://www.w3.org/2000/svg">
<path d="M0.728027 0.00805664H6.34403C7.70403 0.00805664 8.99203 0.160057 10.208 0.464056C11.44 0.768056 12.512 1.26406 13.424 1.95206C14.336 2.62406 15.056 3.50406 15.584 4.59206C16.128 5.68006 16.4 7.00006 16.4 8.55206C16.4 9.92806 16.136 11.1441 15.608 12.2001C15.096 13.2401 14.4 14.1201 13.52 14.8401C12.64 15.5441 11.624 16.0801 10.472 16.4481C9.32003 16.8161 8.11203 17.0001 6.84803 17.0001H0.728027V0.00805664ZM4.47203 13.5441H6.41603C7.28003 13.5441 8.08003 13.4561 8.81603 13.2801C9.56803 13.1041 10.216 12.8161 10.76 12.4161C11.304 12.0001 11.728 11.4641 12.032 10.8081C12.352 10.1361 12.512 9.32006 12.512 8.36006C12.512 7.52806 12.352 6.80806 12.032 6.20006C11.728 5.57606 11.312 5.06406 10.784 4.66406C10.256 4.26406 9.63203 3.96806 8.91203 3.77606C8.20803 3.56806 7.46403 3.46406 6.68003 3.46406H4.47203V13.5441Z" fill="white"/>
<path d="M23.715 12.4641H17.811V9.58406H23.715V12.4641Z" fill="white"/>
<path d="M26.1845 0.00805664H37.7285V3.46406H29.9285V6.63206H37.2965V10.0881H29.9285V13.5441H38.1605V17.0001H26.1845V0.00805664Z" fill="white"/>
<path d="M43.8457 10.7601L39.9577 5.33606H44.2057L46.2697 8.50406L48.2617 5.33606H52.2697L48.4777 10.7601L52.9657 17.0001H48.7177L46.1737 13.1121L43.4377 17.0001H39.2377L43.8457 10.7601Z" fill="white"/>
<path d="M54.3737 5.33606H57.6857V6.87206H57.7337C57.8777 6.66406 58.0617 6.45606 58.2857 6.24806C58.5257 6.02406 58.7976 5.82406 59.1017 5.64806C59.4216 5.47206 59.7657 5.32806 60.1337 5.21606C60.5017 5.10406 60.8937 5.04806 61.3097 5.04806C62.1737 5.04806 62.9577 5.20006 63.6617 5.50406C64.3657 5.79206 64.9657 6.20806 65.4617 6.75206C65.9737 7.28006 66.3657 7.91206 66.6377 8.64806C66.9097 9.38406 67.0457 10.1921 67.0457 11.0721C67.0457 11.8881 66.9177 12.6721 66.6617 13.4241C66.4217 14.1601 66.0697 14.8161 65.6057 15.3921C65.1577 15.9681 64.6057 16.4321 63.9496 16.7841C63.2936 17.1201 62.5497 17.2881 61.7177 17.2881C60.9657 17.2881 60.2617 17.1761 59.6057 16.9521C58.9657 16.7121 58.4377 16.3121 58.0217 15.7521H57.9737V22.4721H54.3737V5.33606ZM57.6857 11.1681C57.6857 12.0481 57.9337 12.7601 58.4297 13.3041C58.9417 13.8481 59.6537 14.1201 60.5657 14.1201C61.4776 14.1201 62.1817 13.8481 62.6777 13.3041C63.1897 12.7601 63.4457 12.0481 63.4457 11.1681C63.4457 10.2881 63.1897 9.57606 62.6777 9.03206C62.1817 8.48806 61.4776 8.21606 60.5657 8.21606C59.6537 8.21606 58.9417 8.48806 58.4297 9.03206C57.9337 9.57606 57.6857 10.2881 57.6857 11.1681Z" fill="white"/>
<path d="M69.1548 5.33606H72.7548V7.20806H72.8028C73.1868 6.48806 73.6428 5.95206 74.1708 5.60006C74.6988 5.23206 75.3628 5.04806 76.1628 5.04806C76.3708 5.04806 76.5788 5.05606 76.7868 5.07206C76.9948 5.08806 77.1868 5.12006 77.3628 5.16806V8.45606C77.1068 8.37606 76.8508 8.32006 76.5948 8.28806C76.3548 8.24006 76.0988 8.21606 75.8268 8.21606C75.1388 8.21606 74.5948 8.31206 74.1948 8.50406C73.7948 8.69606 73.4828 8.96806 73.2588 9.32006C73.0508 9.65606 72.9148 10.0641 72.8508 10.5441C72.7868 11.0241 72.7548 11.5521 72.7548 12.1281V17.0001H69.1548V5.33606Z" fill="white"/>
<path d="M89.5464 14.9841C88.9704 15.7201 88.2424 16.2881 87.3624 16.6881C86.4824 17.0881 85.5704 17.2881 84.6264 17.2881C83.7304 17.2881 82.8824 17.1441 82.0824 16.8561C81.2984 16.5681 80.6104 16.1601 80.0184 15.6321C79.4424 15.0881 78.9864 14.4401 78.6504 13.6881C78.3144 12.9361 78.1464 12.0961 78.1464 11.1681C78.1464 10.2401 78.3144 9.40006 78.6504 8.64806C78.9864 7.89606 79.4424 7.25606 80.0184 6.72806C80.6104 6.18406 81.2984 5.76806 82.0824 5.48006C82.8824 5.19206 83.7304 5.04806 84.6264 5.04806C85.4584 5.04806 86.2104 5.19206 86.8824 5.48006C87.5704 5.76806 88.1464 6.18406 88.6104 6.72806C89.0904 7.25606 89.4584 7.89606 89.7144 8.64806C89.9704 9.40006 90.0984 10.2401 90.0984 11.1681V12.2961H81.7464C81.8904 12.9841 82.2024 13.5361 82.6824 13.9521C83.1624 14.3521 83.7544 14.5521 84.4584 14.5521C85.0504 14.5521 85.5464 14.4241 85.9464 14.1681C86.3624 13.8961 86.7224 13.5521 87.0264 13.1361L89.5464 14.9841ZM86.4984 9.84806C86.5144 9.24006 86.3144 8.72006 85.8984 8.28806C85.4824 7.85606 84.9464 7.64006 84.2904 7.64006C83.8904 7.64006 83.5384 7.70406 83.2344 7.83206C82.9304 7.96006 82.6664 8.12806 82.4424 8.33606C82.2344 8.52806 82.0664 8.76006 81.9384 9.03206C81.8264 9.28806 81.7624 9.56006 81.7464 9.84806H86.4984Z" fill="white"/>
<path d="M98.8877 8.76806C98.3597 8.11206 97.6637 7.78406 96.7997 7.78406C96.4957 7.78406 96.1997 7.85606 95.9117 8.00006C95.6237 8.14406 95.4797 8.39206 95.4797 8.74406C95.4797 9.03206 95.6237 9.24806 95.9117 9.39206C96.2157 9.52006 96.5917 9.64006 97.0397 9.75206C97.5037 9.84806 97.9917 9.96006 98.5037 10.0881C99.0317 10.2001 99.5197 10.3841 99.9677 10.6401C100.432 10.8961 100.808 11.2481 101.096 11.6961C101.4 12.1281 101.552 12.7121 101.552 13.4481C101.552 14.2001 101.384 14.8241 101.048 15.3201C100.728 15.8001 100.312 16.1921 99.7997 16.4961C99.2877 16.7841 98.7117 16.9841 98.0717 17.0961C97.4317 17.2241 96.7997 17.2881 96.1757 17.2881C95.3597 17.2881 94.5357 17.1761 93.7037 16.9521C92.8717 16.7121 92.1676 16.2961 91.5917 15.7041L93.7757 13.2801C94.1117 13.6961 94.4797 14.0161 94.8797 14.2401C95.2957 14.4481 95.7757 14.5521 96.3197 14.5521C96.7357 14.5521 97.1117 14.4961 97.4477 14.3841C97.7837 14.2561 97.9517 14.0321 97.9517 13.7121C97.9517 13.4081 97.7997 13.1841 97.4957 13.0401C97.2077 12.8801 96.8316 12.7521 96.3677 12.6561C95.9197 12.5441 95.4317 12.4321 94.9037 12.3201C94.3917 12.1921 93.9037 12.0081 93.4397 11.7681C92.9917 11.5281 92.6157 11.1921 92.3117 10.7601C92.0237 10.3121 91.8797 9.72006 91.8797 8.98406C91.8797 8.29606 92.0157 7.70406 92.2877 7.20806C92.5757 6.71206 92.9437 6.30406 93.3917 5.98406C93.8557 5.66406 94.3837 5.43206 94.9757 5.28806C95.5677 5.12806 96.1677 5.04806 96.7757 5.04806C97.5437 5.04806 98.3197 5.16006 99.1037 5.38406C99.8876 5.60806 100.552 6.00806 101.096 6.58406L98.8877 8.76806Z" fill="white"/>
<path d="M109.997 8.76806C109.469 8.11206 108.773 7.78406 107.909 7.78406C107.605 7.78406 107.309 7.85606 107.021 8.00006C106.733 8.14406 106.589 8.39206 106.589 8.74406C106.589 9.03206 106.733 9.24806 107.021 9.39206C107.325 9.52006 107.701 9.64006 108.149 9.75206C108.613 9.84806 109.101 9.96006 109.613 10.0881C110.141 10.2001 110.629 10.3841 111.077 10.6401C111.541 10.8961 111.917 11.2481 112.205 11.6961C112.509 12.1281 112.661 12.7121 112.661 13.4481C112.661 14.2001 112.493 14.8241 112.157 15.3201C111.837 15.8001 111.421 16.1921 110.909 16.4961C110.397 16.7841 109.821 16.9841 109.181 17.0961C108.541 17.2241 107.909 17.2881 107.285 17.2881C106.469 17.2881 105.645 17.1761 104.813 16.9521C103.981 16.7121 103.277 16.2961 102.701 15.7041L104.885 13.2801C105.221 13.6961 105.589 14.0161 105.989 14.2401C106.405 14.4481 106.885 14.5521 107.429 14.5521C107.845 14.5521 108.221 14.4961 108.557 14.3841C108.893 14.2561 109.061 14.0321 109.061 13.7121C109.061 13.4081 108.909 13.1841 108.605 13.0401C108.317 12.8801 107.941 12.7521 107.477 12.6561C107.029 12.5441 106.541 12.4321 106.013 12.3201C105.501 12.1921 105.013 12.0081 104.549 11.7681C104.101 11.5281 103.725 11.1921 103.421 10.7601C103.133 10.3121 102.989 9.72006 102.989 8.98406C102.989 8.29606 103.125 7.70406 103.397 7.20806C103.685 6.71206 104.053 6.30406 104.501 5.98406C104.965 5.66406 105.493 5.43206 106.085 5.28806C106.677 5.12806 107.277 5.04806 107.885 5.04806C108.653 5.04806 109.429 5.16006 110.213 5.38406C110.997 5.60806 111.661 6.00806 112.205 6.58406L109.997 8.76806Z" fill="white"/>
</svg>
